<svg width="347" height="116" viewBox="0 0 347 116" fill="none" xmlns="http://www.w3.org/2000/svg">
<path d="M298.346 48.6586C305.407 55.7201 308.642 65.8246 306.998 75.6878C306.53 78.5017 303.869 80.4024 301.055 79.9337C299.952 79.7499 298.989 79.2295 298.254 78.4948C297.115 77.3553 296.524 75.7007 296.809 73.9905C297.906 67.41 295.75 60.6709 291.042 55.9631C286.334 51.2548 279.595 49.0988 273.015 50.1955C270.202 50.6643 267.54 48.7642 267.071 45.9501C266.602 43.1364 268.503 40.4753 271.317 40.0063C281.18 38.3618 291.284 41.5967 298.346 48.6586Z" fill="#F8A456"/>
<path d="M312.041 34.9634C322.129 45.0508 327.477 59.0132 326.716 73.271C326.563 76.1193 324.131 78.3052 321.282 78.1529C319.958 78.0822 318.776 77.5184 317.907 76.6489C316.907 75.6484 316.319 74.2438 316.4 72.7201C317.006 61.3848 312.755 50.2852 304.737 42.2674C296.719 34.2497 285.619 29.9983 274.284 30.6033C271.435 30.7554 269.003 28.5695 268.851 25.7213C268.699 22.8728 270.885 20.4406 273.733 20.2885C287.991 19.5272 301.954 24.8761 312.041 34.9634Z" fill="#F8A456"/>
<path d="M275.784 0.853066C294.657 0.678204 312.397 7.92841 325.737 21.268C339.076 34.6069 346.326 52.347 346.151 71.2206C346.125 74.0731 343.791 76.3637 340.939 76.3374C339.53 76.3243 338.258 75.7486 337.335 74.825C336.389 73.8792 335.809 72.5682 335.822 71.1251C335.971 55.0466 329.795 39.9344 318.433 28.572C307.07 17.2091 291.958 11.0334 275.88 11.1825C273.028 11.2088 270.694 8.91779 270.668 6.06571C270.641 3.21343 272.932 0.879801 275.784 0.853066Z" fill="#F8A456"/>
<path d="M18.5547 53.9336V57H3.49609V53.9336H18.5547ZM4.25781 28.5625V57H0.488281V28.5625H4.25781ZM16.5625 40.7891V43.8555H3.49609V40.7891H16.5625ZM18.3594 28.5625V31.6484H3.49609V28.5625H18.3594Z" fill="#283618"/>
<path d="M38.5309 49.8125C38.5309 49.1484 38.4267 48.5625 38.2184 48.0547C38.0231 47.5339 37.6715 47.0651 37.1637 46.6484C36.6689 46.2318 35.9788 45.8346 35.0934 45.457C34.221 45.0794 33.1142 44.6953 31.7731 44.3047C30.3668 43.888 29.0973 43.4258 27.9645 42.918C26.8317 42.3971 25.8616 41.8047 25.0543 41.1406C24.2471 40.4766 23.6286 39.7148 23.1989 38.8555C22.7692 37.9961 22.5543 37.013 22.5543 35.9062C22.5543 34.7995 22.7822 33.7773 23.2379 32.8398C23.6937 31.9023 24.3447 31.0885 25.1911 30.3984C26.0504 29.6953 27.0726 29.1484 28.2575 28.7578C29.4424 28.3672 30.764 28.1719 32.2223 28.1719C34.3577 28.1719 36.1676 28.582 37.652 29.4023C39.1494 30.2096 40.2887 31.2708 41.07 32.5859C41.8512 33.888 42.2418 35.2812 42.2418 36.7656H38.4918C38.4918 35.6979 38.264 34.7539 37.8083 33.9336C37.3525 33.1003 36.6624 32.4492 35.7379 31.9805C34.8135 31.4987 33.6416 31.2578 32.2223 31.2578C30.8812 31.2578 29.7744 31.4596 28.902 31.8633C28.0296 32.2669 27.3786 32.8138 26.9489 33.5039C26.5322 34.194 26.3239 34.9818 26.3239 35.8672C26.3239 36.4661 26.4476 37.013 26.695 37.5078C26.9554 37.9896 27.3525 38.4388 27.8864 38.8555C28.4333 39.2721 29.1234 39.6562 29.9567 40.0078C30.803 40.3594 31.8122 40.6979 32.984 41.0234C34.5986 41.4792 35.9918 41.987 37.1637 42.5469C38.3356 43.1068 39.2991 43.7383 40.0543 44.4414C40.8226 45.1315 41.389 45.9193 41.7536 46.8047C42.1312 47.6771 42.32 48.6667 42.32 49.7734C42.32 50.9323 42.0856 51.9805 41.6168 52.918C41.1481 53.8555 40.4775 54.6562 39.6051 55.3203C38.7327 55.9844 37.6846 56.4987 36.4606 56.8633C35.2497 57.2148 33.8955 57.3906 32.3981 57.3906C31.083 57.3906 29.7874 57.2083 28.5114 56.8438C27.2484 56.4792 26.096 55.9323 25.0543 55.2031C24.0257 54.474 23.1989 53.5755 22.5739 52.5078C21.9619 51.4271 21.6559 50.1771 21.6559 48.7578H25.4059C25.4059 49.7344 25.5947 50.5742 25.9723 51.2773C26.3499 51.9674 26.8642 52.5404 27.5153 52.9961C28.1793 53.4518 28.928 53.7904 29.7614 54.0117C30.6077 54.2201 31.4866 54.3242 32.3981 54.3242C33.7132 54.3242 34.8265 54.1419 35.7379 53.7773C36.6494 53.4128 37.3395 52.8919 37.8083 52.2148C38.29 51.5378 38.5309 50.737 38.5309 49.8125Z" fill="#283618"/>
<path d="M57.7845 28.5625V57H54.0735V28.5625H57.7845ZM66.9251 28.5625V31.6484H44.9524V28.5625H66.9251Z" fill="#283618"/>
<path d="M91.7646 42.8398V53.25C91.413 53.7708 90.8531 54.3568 90.0849 55.0078C89.3167 55.6458 88.2555 56.2057 86.9013 56.6875C85.5602 57.1562 83.8284 57.3906 81.706 57.3906C79.9742 57.3906 78.3792 57.0911 76.9208 56.4922C75.4755 55.8802 74.219 54.9948 73.1513 53.8359C72.0966 52.6641 71.2763 51.2448 70.6904 49.5781C70.1175 47.8984 69.831 45.9974 69.831 43.875V41.668C69.831 39.5456 70.0784 37.651 70.5732 35.9844C71.081 34.3177 71.8232 32.9049 72.7998 31.7461C73.7763 30.5742 74.9742 29.6888 76.3935 29.0898C77.8128 28.4779 79.4404 28.1719 81.2763 28.1719C83.4508 28.1719 85.2672 28.5495 86.7255 29.3047C88.1969 30.0469 89.3427 31.0755 90.163 32.3906C90.9964 33.7057 91.5302 35.2031 91.7646 36.8828H87.9951C87.8258 35.8542 87.4873 34.9167 86.9794 34.0703C86.4846 33.224 85.775 32.5469 84.8505 32.0391C83.9261 31.5182 82.7346 31.2578 81.2763 31.2578C79.9612 31.2578 78.8219 31.4987 77.8583 31.9805C76.8948 32.4622 76.1005 33.1523 75.4755 34.0508C74.8505 34.9492 74.3818 36.0365 74.0693 37.3125C73.7698 38.5885 73.6201 40.0273 73.6201 41.6289V43.875C73.6201 45.5156 73.8089 46.9805 74.1865 48.2695C74.5771 49.5586 75.1305 50.6589 75.8466 51.5703C76.5628 52.4688 77.4156 53.1523 78.4052 53.6211C79.4078 54.0898 80.5146 54.3242 81.7255 54.3242C83.0667 54.3242 84.1539 54.2135 84.9873 53.9922C85.8206 53.7578 86.4716 53.4844 86.9404 53.1719C87.4091 52.8464 87.7672 52.5404 88.0146 52.2539V45.8867H81.4326V42.8398H91.7646Z" fill="#283618"/>
<path d="M19.1797 107.656C20.638 107.656 21.9401 107.37 23.0859 106.797C24.2318 106.224 25.1432 105.417 25.8203 104.375C26.5234 103.333 26.901 102.122 26.9531 100.742H36.6797C36.6276 103.607 35.8203 106.172 34.2578 108.438C32.6953 110.703 30.612 112.5 28.0078 113.828C25.4297 115.13 22.5391 115.781 19.3359 115.781C16.0807 115.781 13.2422 115.234 10.8203 114.141C8.39844 113.047 6.38021 111.523 4.76562 109.57C3.17708 107.617 1.97917 105.352 1.17188 102.773C0.390625 100.195 0 97.4349 0 94.4922V93.2422C0 90.2995 0.390625 87.5391 1.17188 84.9609C1.97917 82.3828 3.17708 80.1172 4.76562 78.1641C6.38021 76.2109 8.39844 74.6875 10.8203 73.5938C13.2422 72.5 16.0677 71.9531 19.2969 71.9531C22.7083 71.9531 25.7031 72.6172 28.2812 73.9453C30.8854 75.2734 32.9167 77.1484 34.375 79.5703C35.8594 81.9922 36.6276 84.8438 36.6797 88.125H26.9531C26.901 86.6146 26.5625 85.2604 25.9375 84.0625C25.3125 82.8646 24.4271 81.901 23.2812 81.1719C22.1354 80.4427 20.7422 80.0781 19.1016 80.0781C17.3568 80.0781 15.8984 80.4427 14.7266 81.1719C13.5807 81.901 12.6823 82.9036 12.0312 84.1797C11.4062 85.4297 10.9635 86.8359 10.7031 88.3984C10.4688 89.9349 10.3516 91.5495 10.3516 93.2422V94.4922C10.3516 96.2109 10.4688 97.8516 10.7031 99.4141C10.9635 100.977 11.4062 102.383 12.0312 103.633C12.6823 104.857 13.5807 105.833 14.7266 106.562C15.8984 107.292 17.3828 107.656 19.1797 107.656Z" fill="#283618"/>
<path d="M42.0228 94.2969V93.4766C42.0228 90.3776 42.4655 87.526 43.3509 84.9219C44.2363 82.2917 45.5254 80.013 47.2181 78.0859C48.9108 76.1589 50.9811 74.6615 53.429 73.5938C55.8769 72.5 58.6634 71.9531 61.7884 71.9531C64.9655 71.9531 67.778 72.5 70.2259 73.5938C72.6998 74.6615 74.7832 76.1589 76.4759 78.0859C78.1686 80.013 79.4576 82.2917 80.3431 84.9219C81.2285 87.526 81.6712 90.3776 81.6712 93.4766V94.2969C81.6712 97.3698 81.2285 100.221 80.3431 102.852C79.4576 105.456 78.1686 107.734 76.4759 109.688C74.7832 111.615 72.7129 113.112 70.2649 114.18C67.817 115.247 65.0175 115.781 61.8665 115.781C58.7415 115.781 55.942 115.247 53.4681 114.18C50.9941 113.112 48.9108 111.615 47.2181 109.688C45.5254 107.734 44.2363 105.456 43.3509 102.852C42.4655 100.221 42.0228 97.3698 42.0228 94.2969ZM52.3353 93.4766V94.2969C52.3353 96.1458 52.5175 97.8776 52.8821 99.4922C53.2467 101.107 53.8066 102.526 54.5618 103.75C55.317 104.974 56.2936 105.938 57.4915 106.641C58.7155 107.318 60.1738 107.656 61.8665 107.656C63.5332 107.656 64.9655 107.318 66.1634 106.641C67.3613 105.938 68.3379 104.974 69.0931 103.75C69.8743 102.526 70.4472 101.107 70.8118 99.4922C71.1764 97.8776 71.3587 96.1458 71.3587 94.2969V93.4766C71.3587 91.6536 71.1764 89.9479 70.8118 88.3594C70.4472 86.7448 69.8743 85.3255 69.0931 84.1016C68.3379 82.8516 67.3483 81.875 66.1243 81.1719C64.9264 80.4427 63.4811 80.0781 61.7884 80.0781C60.1217 80.0781 58.6894 80.4427 57.4915 81.1719C56.2936 81.875 55.317 82.8516 54.5618 84.1016C53.8066 85.3255 53.2467 86.7448 52.8821 88.3594C52.5175 89.9479 52.3353 91.6536 52.3353 93.4766Z" fill="#283618"/>
<path d="M99.5924 81.7578V115H89.2799V72.7344H98.9674L99.5924 81.7578ZM97.9518 92.3438H94.9049C94.9309 89.2708 95.3476 86.4844 96.1549 83.9844C96.9622 81.4844 98.095 79.3359 99.5533 77.5391C101.038 75.7422 102.796 74.362 104.827 73.3984C106.858 72.4349 109.124 71.9531 111.624 71.9531C113.655 71.9531 115.491 72.2396 117.131 72.8125C118.772 73.3854 120.178 74.2969 121.35 75.5469C122.548 76.7969 123.46 78.4375 124.085 80.4688C124.736 82.474 125.061 84.9479 125.061 87.8906V115H114.671V87.8125C114.671 85.8854 114.384 84.362 113.811 83.2422C113.264 82.1224 112.457 81.3281 111.389 80.8594C110.348 80.3906 109.059 80.1562 107.522 80.1562C105.934 80.1562 104.54 80.4818 103.342 81.1328C102.171 81.7578 101.181 82.6302 100.374 83.75C99.5924 84.8698 98.9934 86.1589 98.5768 87.6172C98.1601 89.0755 97.9518 90.651 97.9518 92.3438Z" fill="#283618"/>
<path d="M144.584 81.7578V115H134.271V72.7344H143.959L144.584 81.7578ZM142.943 92.3438H139.896C139.922 89.2708 140.339 86.4844 141.146 83.9844C141.954 81.4844 143.086 79.3359 144.545 77.5391C146.029 75.7422 147.787 74.362 149.818 73.3984C151.85 72.4349 154.115 71.9531 156.615 71.9531C158.646 71.9531 160.482 72.2396 162.123 72.8125C163.764 73.3854 165.17 74.2969 166.342 75.5469C167.54 76.7969 168.451 78.4375 169.076 80.4688C169.727 82.474 170.053 84.9479 170.053 87.8906V115H159.662V87.8125C159.662 85.8854 159.376 84.362 158.803 83.2422C158.256 82.1224 157.448 81.3281 156.381 80.8594C155.339 80.3906 154.05 80.1562 152.514 80.1562C150.925 80.1562 149.532 80.4818 148.334 81.1328C147.162 81.7578 146.172 82.6302 145.365 83.75C144.584 84.8698 143.985 86.1589 143.568 87.6172C143.152 89.0755 142.943 90.651 142.943 92.3438Z" fill="#283618"/>
<path d="M198.443 115.781C195.239 115.781 192.362 115.26 189.81 114.219C187.258 113.177 185.083 111.732 183.286 109.883C181.515 108.008 180.148 105.833 179.185 103.359C178.247 100.859 177.779 98.1771 177.779 95.3125V93.75C177.779 90.4948 178.247 87.5391 179.185 84.8828C180.122 82.2005 181.45 79.8958 183.169 77.9688C184.888 76.0417 186.945 74.5573 189.341 73.5156C191.737 72.474 194.38 71.9531 197.271 71.9531C200.265 71.9531 202.909 72.4609 205.2 73.4766C207.492 74.4661 209.406 75.8724 210.943 77.6953C212.479 79.5182 213.638 81.7057 214.419 84.2578C215.2 86.7839 215.591 89.5833 215.591 92.6562V96.9922H182.466V89.8828H205.435V89.1016C205.383 87.4609 205.07 85.9635 204.497 84.6094C203.924 83.2292 203.039 82.1354 201.841 81.3281C200.643 80.4948 199.094 80.0781 197.193 80.0781C195.656 80.0781 194.315 80.4167 193.169 81.0938C192.049 81.7448 191.112 82.6823 190.357 83.9062C189.627 85.1042 189.081 86.5365 188.716 88.2031C188.351 89.8698 188.169 91.7188 188.169 93.75V95.3125C188.169 97.0833 188.404 98.724 188.872 100.234C189.367 101.745 190.083 103.06 191.021 104.18C191.984 105.273 193.13 106.133 194.458 106.758C195.812 107.357 197.349 107.656 199.068 107.656C201.229 107.656 203.182 107.24 204.927 106.406C206.698 105.547 208.234 104.284 209.536 102.617L214.732 108.008C213.846 109.31 212.648 110.56 211.138 111.758C209.654 112.956 207.857 113.932 205.747 114.688C203.638 115.417 201.203 115.781 198.443 115.781Z" fill="#283618"/>
<path d="M240.153 107.656C241.611 107.656 242.913 107.37 244.059 106.797C245.205 106.224 246.116 105.417 246.793 104.375C247.497 103.333 247.874 102.122 247.926 100.742H257.653C257.601 103.607 256.793 106.172 255.231 108.438C253.668 110.703 251.585 112.5 248.981 113.828C246.403 115.13 243.512 115.781 240.309 115.781C237.054 115.781 234.215 115.234 231.793 114.141C229.372 113.047 227.353 111.523 225.739 109.57C224.15 107.617 222.952 105.352 222.145 102.773C221.364 100.195 220.973 97.4349 220.973 94.4922V93.2422C220.973 90.2995 221.364 87.5391 222.145 84.9609C222.952 82.3828 224.15 80.1172 225.739 78.1641C227.353 76.2109 229.372 74.6875 231.793 73.5938C234.215 72.5 237.041 71.9531 240.27 71.9531C243.681 71.9531 246.676 72.6172 249.254 73.9453C251.859 75.2734 253.89 77.1484 255.348 79.5703C256.833 81.9922 257.601 84.8438 257.653 88.125H247.926C247.874 86.6146 247.536 85.2604 246.911 84.0625C246.286 82.8646 245.4 81.901 244.254 81.1719C243.109 80.4427 241.715 80.0781 240.075 80.0781C238.33 80.0781 236.872 80.4427 235.7 81.1719C234.554 81.901 233.655 82.9036 233.004 84.1797C232.379 85.4297 231.937 86.8359 231.676 88.3984C231.442 89.9349 231.325 91.5495 231.325 93.2422V94.4922C231.325 96.2109 231.442 97.8516 231.676 99.4141C231.937 100.977 232.379 102.383 233.004 103.633C233.655 104.857 234.554 105.833 235.7 106.562C236.872 107.292 238.356 107.656 240.153 107.656Z" fill="#283618"/>
<path d="M284.832 72.7344V80.1562H260.613V72.7344H284.832ZM267.097 62.3438H277.449V102.812C277.449 104.062 277.618 105.026 277.957 105.703C278.295 106.38 278.803 106.836 279.48 107.07C280.157 107.305 280.965 107.422 281.902 107.422C282.579 107.422 283.204 107.383 283.777 107.305C284.35 107.227 284.832 107.148 285.222 107.07L285.262 114.805C284.402 115.091 283.426 115.326 282.332 115.508C281.264 115.69 280.053 115.781 278.699 115.781C276.381 115.781 274.35 115.391 272.605 114.609C270.86 113.802 269.506 112.513 268.543 110.742C267.579 108.945 267.097 106.576 267.097 103.633V62.3438Z" fill="#283618"/>
</svg>
